PathFileType	4	(X/Y/Z)	/Users/visionmauri/Downloads/Videos/OAW09-top_Sports2D/OAW09-top_Sports2D_px_person00.trc
DataRate	CameraRate	NumFrames	NumMarkers	Units	OrigDataRate	OrigDataStartFrame	OrigNumFrames
30.0	30.0	13	22	m	30.0	516	2065
Frame#	Time	Hip			RHip			RKnee			RAnkle			RBigToe			RSmallToe			RHeel			LHip			LKnee			LAnkle			LBigToe			LSmallToe			LHeel			Neck			Head			Nose			RShoulder			RElbow			RWrist			LShoulder			LElbow			LWrist			
		X1	Y1	Z1	X2	Y2	Z2	X3	Y3	Z3	X4	Y4	Z4	X5	Y5	Z5	X6	Y6	Z6	X7	Y7	Z7	X8	Y8	Z8	X9	Y9	Z9	X10	Y10	Z10	X11	Y11	Z11	X12	Y12	Z12	X13	Y13	Z13	X14	Y14	Z14	X15	Y15	Z15	X16	Y16	Z16	X17	Y17	Z17	X18	Y18	Z18	X19	Y19	Z19	X20	Y20	Z20	X21	Y21	Z21	X22	Y22	Z22
516	17.208333333333332	579.1179565807964	874.4746186190819	0.0	619.5249500176492	880.7284730083165	0.0	606.244163965455	1009.9752742065926	0.0	598.6944909842291	1130.600977002976	0.0	588.397217053285	1135.6223806351527	0.0	615.19777148886	1136.027120405086	0.0	593.628072633784	1156.3399142196868	0.0	539.6293288124205	878.5759469308514	0.0	555.695991439656	1043.4826873535578	0.0	566.194403273755	1198.754428494009	0.0	573.3620391963839	1219.4801870177055	0.0	552.3251889469943	1228.9446902325533	0.0	570.3559185105271	1229.5770877080106	0.0	590.6996798853365	672.8318994852228	0.0	590.1692571634488	578.5110205774521	0.0	584.8088365122828	651.5555100629256	0.0	664.214781095811	704.3521055037917	0.0	686.7675198364291	817.7136803250575	0.0	688.9007100431962	911.9797264466514	0.0	515.5818760427508	692.2084963091171	0.0	469.64388089972505	792.9778361868009	0.0	467.87925836564966	836.9643803264406	0.0
517	17.241682816537466	578.2522688129025	873.6862555426286	0.0	618.1136122356183	881.2439729669807	0.0	604.9450122834426	1005.4838199861194	0.0	593.963029489697	1120.4900920508392	0.0	586.7857005415766	1133.6257067517395	0.0	613.2196744810473	1132.5053771477346	0.0	587.1634156572474	1142.6703224719797	0.0	539.1335646167868	878.8011364610741	0.0	555.2062279144865	1039.8492790705125	0.0	564.9767238672777	1194.6863510071917	0.0	576.2490695579472	1219.5809456196635	0.0	553.3694489083268	1227.7910494079258	0.0	568.6460231132382	1225.1106476558562	0.0	591.2776963969281	673.3234330686123	0.0	594.9004368041747	580.2396826793635	0.0	592.1711380631751	652.4904039740053	0.0	664.2494192217995	704.5644173016927	0.0	685.8470683173084	817.8531895030561	0.0	688.4166130399315	911.4078646317163	0.0	517.3958200533605	692.2838743434241	0.0	471.3413561321256	793.5190557083954	0.0	468.2019075665342	830.688506569421	0.0
518	17.2750322997416	577.468461394351	872.4243758359388	0.0	616.6063243140875	880.5131575465142	0.0	603.979351549609	1001.3650076255186	0.0	591.1875985536556	1110.2222506531855	0.0	588.7546331208863	1126.848510370311	0.0	613.6240057745061	1126.6835784964426	0.0	584.0110664769144	1129.0111886095979	0.0	538.6824667270129	877.994501723617	0.0	554.1095089737436	1035.2094170498979	0.0	564.003436056168	1189.0368670001178	0.0	577.10696505061	1217.2140733180884	0.0	553.1472081187098	1224.780122433923	0.0	567.7910650594251	1218.5847544927992	0.0	592.1211275448854	672.0864812955123	0.0	598.9467534068664	581.1892779034113	0.0	600.0690123048456	649.9360402233679	0.0	664.4065563593667	704.1024719493854	0.0	684.9148754071186	817.9858980946835	0.0	687.2703845132448	910.3723708159799	0.0	519.2048211159505	691.9228374461525	0.0	473.9662328805474	792.6116383115235	0.0	468.9797787633269	827.5690558317064	0.0
519	17.308381782945734	577.0889081820823	868.642701458511	0.0	615.9558479852798	877.0055479297079	0.0	602.8558370887043	997.8462073756672	0.0	589.6173278773576	1103.8035790560198	0.0	591.062060260538	1118.5742134122606	0.0	614.1604189102677	1122.418833284548	0.0	582.6547761911258	1121.4523232170943	0.0	538.6436567809994	873.9310489537605	0.0	551.9490663920271	1029.9752405783854	0.0	562.7679815341701	1182.026206820275	0.0	576.6806022566745	1213.8655177578423	0.0	552.1515638509801	1220.06574383287	0.0	566.7015623095657	1210.2706358464322	0.0	593.4078357870067	671.0145230355457	0.0	601.3876213310125	582.3130372107804	0.0	603.1222489574712	648.0077255771007	0.0	664.7740925272586	703.2221948771328	0.0	684.0477733844824	816.870856687202	0.0	685.084873655837	908.3485590388186	0.0	520.795356335739	691.0917315050053	0.0	476.6145966450213	789.7844891095941	0.0	470.1279627364927	828.5331124844774	0.0
520	17.341731266149868	577.621967826942	863.2686589762981	0.0	616.4042142677423	870.9287702783284	0.0	601.694140971194	994.9518783720756	0.0	588.9256130301272	1102.3285290012493	0.0	591.1988894839396	1112.0373758729456	0.0	614.0731957222374	1120.8965734012006	0.0	582.1215147105652	1120.8237619122706	0.0	539.5878691749124	867.5800922183846	0.0	548.9860912145057	1023.7859716110136	0.0	560.6088529134121	1171.8921928505088	0.0	575.580417237041	1209.5342811103728	0.0	551.049199378477	1212.5622461846117	0.0	564.3082013158299	1198.779912302066	0.0	594.601554005517	670.6248263813644	0.0	602.243649036228	583.9755955314735	0.0	602.8951124981994	648.8864231127029	0.0	665.2718833791703	701.6023142157126	0.0	682.9413820324378	813.5882942874532	0.0	681.9847990951027	904.8323569434347	0.0	522.302773406447	689.4013547157366	0.0	479.5631481033432	786.0486577293224	0.0	471.6188134694698	832.4627064219635	0.0
521	17.375080749354	579.3244825458949	857.9076469825534	0.0	617.6684179514508	863.5478368319754	0.0	601.0333567767057	992.4370634389132	0.0	588.9932680232363	1103.4065546112222	0.0	589.140616812703	1108.7912697676209	0.0	613.6620318571275	1119.6144082383908	0.0	582.319800061417	1123.7762073609856	0.0	541.8848202026606	861.1778085862823	0.0	546.1379629949101	1015.4890888507523	0.0	557.4921754301761	1155.6265427838014	0.0	573.4161017575682	1201.6980064542859	0.0	549.644408459641	1200.540544802535	0.0	560.6403432841523	1181.5353238514638	0.0	594.976567637436	669.8950498559781	0.0	601.9059520667424	584.8490459417958	0.0	602.0733122078325	650.5084898636223	0.0	665.5385979511634	698.8403785212122	0.0	681.5031202534792	808.3895715420219	0.0	678.8976893364268	899.3342652007901	0.0	523.392020212911	686.434531855183	0.0	483.123042943542	782.2565211263475	0.0	473.6796244000398	836.821514357823	0.0
522	17.408430232558135	581.8581845265616	852.4280835453628	0.0	619.5597478357045	856.1818624677632	0.0	601.0596357225846	989.6081012332028	0.0	589.2743852176518	1104.9396278277484	0.0	585.7571071515499	1108.1316104791103	0.0	612.6524057262016	1117.6428293730035	0.0	583.1308113349805	1128.3387914355783	0.0	545.2590594479824	855.3660511568486	0.0	544.05969095893	1004.0466809624486	0.0	554.3381767495155	1132.6263732188793	0.0	569.5355302402934	1188.357751572601	0.0	546.8294007901749	1184.047973089357	0.0	557.2532904627914	1158.0515419389305	0.0	594.8342948464881	667.6071442167881	0.0	600.7919955448613	583.4206695091995	0.0	600.9523765324354	648.5931116048937	0.0	665.0879947755618	694.9776507961112	0.0	680.0868902519305	802.1851629345949	0.0	676.6401791231689	891.298434209385	0.0	524.2734223843762	682.1551534259811	0.0	486.77638258452686	777.9589909887275	0.0	476.48341852672917	839.9402968638057	0.0
523	17.44177971576227	584.2929350834983	846.6633109368797	0.0	621.5908362823802	850.0172920091809	0.0	601.4929048255954	985.410064720273	0.0	589.5009959888334	1105.7988215653322	0.0	581.8960036804555	1108.0215586089155	0.0	610.4014050511752	1117.2704795650234	0.0	584.5589492418227	1132.1251619950026	0.0	548.6537435903738	850.1010786350479	0.0	542.8602695982768	990.3233683208224	0.0	552.0955398644451	1106.955768838987	0.0	564.796059890258	1171.0236448599167	0.0	542.8980138972202	1165.5605561420803	0.0	555.758316525287	1131.6051023322482	0.0	594.868490499782	663.3163522804748	0.0	599.0986050698467	579.8636429655863	0.0	599.2763971395328	641.5896765532673	0.0	663.816572078265	690.3134206332197	0.0	679.199714954437	795.5349021777886	0.0	674.7736407517433	880.9629551124813	0.0	525.5004529914886	677.1355927538251	0.0	489.9971760701569	773.186470688136	0.0	479.8336774361777	842.0366785431927	0.0
524	17.475129198966407	585.8458642025636	841.3446467723908	0.0	623.1032302196967	845.2471273086215	0.0	601.9382847539431	979.7366533494525	0.0	589.7873283115434	1104.9066052138503	0.0	578.2727974117026	1107.9740258391846	0.0	606.977636116411	1119.9862602572346	0.0	586.4205035225046	1132.0522147357087	0.0	551.0002718075458	845.4446357087704	0.0	542.4552068663006	977.3446773637362	0.0	550.6232923347457	1085.148544286629	0.0	560.8747721041941	1153.0032385099373	0.0	539.3660241892109	1147.952833641977	0.0	555.7049583153029	1108.3912769966314	0.0	595.0272579710704	657.9359414936094	0.0	596.8770984106213	575.8616754870983	0.0	597.2616937107537	633.2188837223675	0.0	662.1876190683718	685.2828808413726	0.0	679.2316069619671	788.7892702627919	0.0	672.0949929775769	870.1891519213533	0.0	526.9125019399296	672.4678081408931	0.0	492.735364606346	769.3803659303588	0.0	483.2613802130102	843.6753428719898	0.0
525	17.50847868217054	586.4192342505196	836.5905495218542	0.0	623.8525764404291	840.8789393685375	0.0	602.0585510897664	973.6257296785761	0.0	590.0804396460647	1102.3041144226097	0.0	575.4703017256518	1108.9080081156844	0.0	603.918693676923	1123.8806753248693	0.0	587.8612812193617	1128.5640877619958	0.0	552.1309909996211	840.93465881536	0.0	542.7525261012325	967.270443453293	0.0	549.0824360698606	1071.2070952643078	0.0	557.8969927637856	1136.22831573741	0.0	536.405499884236	1132.622139276101	0.0	555.1321048313023	1093.4186994965225	0.0	594.7094958453242	653.496146634182	0.0	594.0970040132923	572.7671373519421	0.0	594.5090083048087	628.1168404910297	0.0	660.5303958616239	680.5261929784631	0.0	680.0754626284597	782.4735212092493	0.0	668.0043639458185	860.590290638159	0.0	527.7736829706909	669.1232614552735	0.0	495.181088489538	767.2524834702882	0.0	486.4947635561359	844.7727727789845	0.0
526	17.541828165374675	586.1462601173165	831.8167808066929	0.0	623.7619009312674	836.1482294442275	0.0	601.7275630330338	968.4651899043099	0.0	590.2063613729007	1099.7406973543054	0.0	574.1453589958203	1110.6655549701895	0.0	603.0487658639405	1125.7544989487794	0.0	588.1301821172004	1125.189195370511	0.0	552.350957084966	836.0938061034819	0.0	543.4939254405722	959.6990750356633	0.0	547.0470524712987	1064.7983120096712	0.0	554.6641284437593	1120.9221295162947	0.0	533.0854455706074	1119.540421246765	0.0	552.8930602152083	1086.711745295711	0.0	593.6182392994076	651.9235841694473	0.0	590.9809776284059	570.5061712930237	0.0	590.2187369401113	626.8202868344288	0.0	658.6702923221745	676.7961114989345	0.0	680.8062324953395	777.1205896292131	0.0	662.7198427893467	851.9384631204026	0.0	527.458321700294	667.1198204262699	0.0	497.5332884631579	765.9687889324695	0.0	489.5801512009343	845.2684496509869	0.0
527	17.57517764857881	585.2489932619044	827.2808126698541	0.0	622.7679944350456	831.7151331408946	0.0	601.174514631365	965.4924262502414	0.0	589.9383731783101	1098.5285747313367	0.0	574.8051515888889	1111.4328909507253	0.0	604.1262839205178	1124.284550718636	0.0	587.3046189802619	1123.969110433335	0.0	552.0184074523419	831.6199220875392	0.0	544.0980607013184	954.0356990071497	0.0	544.713440586077	1063.5239771961558	0.0	550.571503761957	1106.3567238314188	0.0	529.1815139564627	1107.7072528831764	0.0	549.338890408103	1085.5885346466762	0.0	592.1027103441627	652.5214560247927	0.0	588.2655996453415	568.5563546374501	0.0	585.1543776974106	626.4309030542803	0.0	656.4009217056685	674.2806632964682	0.0	680.4793905506981	772.8267754863577	0.0	657.2061537538402	843.4725865378804	0.0	526.1557509766857	665.7554918091927	0.0	499.5806959780242	764.8503785138115	0.0	492.5758270946361	845.3982007382813	0.0
528	17.608527131782942	584.3225411551725	824.3105728236246	0.0	621.2796579605542	829.1330383375723	0.0	600.7652312696812	964.6103457231362	0.0	589.1234424623851	1097.871637123403	0.0	577.4020290923033	1110.2438397225658	0.0	605.2832856993244	1121.2035276062022	0.0	585.9497478068974	1123.8173367438985	0.0	551.7587052270738	829.1729514262712	0.0	544.2324755395937	950.8362092466546	0.0	542.5614162270264	1064.4620154064455	0.0	546.1158357297193	1091.344244885116	0.0	525.535711867006	1095.5604601199614	0.0	545.4902575424595	1087.5828931890799	0.0	590.7005602215932	651.649424851251	0.0	586.3569356673343	567.0896307561848	0.0	580.7949451270023	624.2099530500216	0.0	653.9026316216712	671.9824762747123	0.0	679.3976097671122	768.9750259777928	0.0	652.8336605873515	834.9185364438314	0.0	524.8996025321309	664.7419634722992	0.0	501.0706564993241	763.9364634238303	0.0	495.45478875532154	845.3299410894163	0.0
